HIERARCHY
ROOT Hips
{
	OFFSET 0.00000 0.00000 0.00000
	CHANNELS 6 Xposition Yposition Zposition Zrotation Yrotation Xrotation 
	JOINT LHipJoint
	{
		OFFSET 0 0 0
		CHANNELS 3 Zrotation Yrotation Xrotation
		JOINT LeftUpLeg
		{
			OFFSET 1.48831 -1.59570 0.95625
			CHANNELS 3 Zrotation Yrotation Xrotation
			JOINT LeftLeg
			{
				OFFSET 2.20856 -6.06797 0.00000
				CHANNELS 3 Zrotation Yrotation Xrotation
				JOINT LeftFoot
				{
					OFFSET 2.62924 -7.22379 0.00000
					CHANNELS 3 Zrotation Yrotation Xrotation
					JOINT LeftToeBase
					{
						OFFSET 0.16802 -0.46163 2.41673
						CHANNELS 3 Zrotation Yrotation Xrotation
						End Site
						{
							OFFSET 0.00000 -0.00000 1.23760
						}
					}
				}
			}
		}
	}
	JOINT RHipJoint
	{
		OFFSET 0 0 0
		CHANNELS 3 Zrotation Yrotation Xrotation
		JOINT RightUpLeg
		{
			OFFSET -1.56796 -1.59570 0.95625
			CHANNELS 3 Zrotation Yrotation Xrotation
			JOINT RightLeg
			{
				OFFSET -2.29239 -6.29829 0.00000
				CHANNELS 3 Zrotation Yrotation Xrotation
				JOINT RightFoot
				{
					OFFSET -2.66963 -7.33475 0.00000
					CHANNELS 3 Zrotation Yrotation Xrotation
					JOINT RightToeBase
					{
						OFFSET -0.18185 -0.49964 2.34359
						CHANNELS 3 Zrotation Yrotation Xrotation
						End Site
						{
							OFFSET -0.00000 -0.00000 1.20477
						}
					}
				}
			}
		}
	}
	JOINT LowerBack
	{
		OFFSET 0 0 0
		CHANNELS 3 Zrotation Yrotation Xrotation
		JOINT Spine
		{
			OFFSET 0.03505 2.15832 -0.34324
			CHANNELS 3 Zrotation Yrotation Xrotation
			JOINT Spine1
			{
				OFFSET -0.01089 2.17963 0.04689
				CHANNELS 3 Zrotation Yrotation Xrotation
				JOINT Neck
				{
					OFFSET 0 0 0
					CHANNELS 3 Zrotation Yrotation Xrotation
					JOINT Neck1
					{
						OFFSET 0.04686 1.69404 0.22159
						CHANNELS 3 Zrotation Yrotation Xrotation
						JOINT Head
						{
							OFFSET 0.00265 1.69305 -0.01513
							CHANNELS 3 Zrotation Yrotation Xrotation
							End Site
							{
								OFFSET -0.00415 1.80215 -0.03034
							}
						}
					}
				}
				JOINT LeftShoulder
				{
					OFFSET 0 0 0
					CHANNELS 3 Zrotation Yrotation Xrotation
					JOINT LeftArm
					{
						OFFSET 3.67184 1.11724 -0.19002
						CHANNELS 3 Zrotation Yrotation Xrotation
						JOINT LeftForeArm
						{
							OFFSET 5.17714 -0.00000 -0.00000
							CHANNELS 3 Zrotation Yrotation Xrotation
							JOINT LeftHand
							{
								OFFSET 3.43679 -0.00000 -0.00000
								CHANNELS 3 Zrotation Yrotation Xrotation
								JOINT LeftFingerBase
								{
									OFFSET 0 0 0
									CHANNELS 3 Zrotation Yrotation Xrotation
									JOINT LeftHandIndex1
									{
										OFFSET 0.57312 -0.00000 -0.00000
										CHANNELS 3 Zrotation Yrotation Xrotation
										End Site
										{
											OFFSET 0.46206 -0.00000 -0.00000
										}
									}
								}
								JOINT LThumb
								{
									OFFSET 0 0 0
									CHANNELS 3 Zrotation Yrotation Xrotation
									End Site
									{
										OFFSET 0.46912 -0.00000 0.46912
									}
								}
							}
						}
					}
				}
				JOINT RightShoulder
				{
					OFFSET 0 0 0
					CHANNELS 3 Zrotation Yrotation Xrotation
					JOINT RightArm
					{
						OFFSET -3.59596 0.95831 -0.26050
						CHANNELS 3 Zrotation Yrotation Xrotation
						JOINT RightForeArm
						{
							OFFSET -5.23908 -0.00000 -0.00000
							CHANNELS 3 Zrotation Yrotation Xrotation
							JOINT RightHand
							{
								OFFSET -3.46485 -0.00000 -0.00000
								CHANNELS 3 Zrotation Yrotation Xrotation
								JOINT RightFingerBase
								{
									OFFSET 0 0 0
									CHANNELS 3 Zrotation Yrotation Xrotation
									JOINT RightHandIndex1
									{
										OFFSET -0.60875 -0.00000 -0.00000
										CHANNELS 3 Zrotation Yrotation Xrotation
										End Site
										{
											OFFSET -0.49079 -0.00000 -0.00000
										}
									}
								}
								JOINT RThumb
								{
									OFFSET 0 0 0
									CHANNELS 3 Zrotation Yrotation Xrotation
									End Site
									{
										OFFSET -0.49829 -0.00000 0.49829
									}
								}
							}
						}
					}
				}
			}
		}
	}
}
MOTION
Frames: 8
Frame Time: 0.0625
0.00 0.00 0.00 0 0 0 0 0 0 -21 0 0 0 0 0 0 0 0 0 0 0 0 0 0 21 0 0 0 0 0 0 0 0 0 0 0 0 0 0 0 0 0 0 0 0 0 0 -16 0 0 21 0 0 11 0 0 0 -8 0 0 0 0 0 0 0 0 0 0 0 0 0 0 0 0 0 0 0 0 8 0 0 0 0 0 0 0 0 0 0 0 0 0 0 0 0 0
0.00 0.00 0.00 -4.7814 -61.1700 3.5844 0.0000 0.0000 0.0000 -15.2355 6.9951 -4.3084 1.1505 6.8106 19.1556 0.9221 4.0925 -20.0617 0.0000 -0.0373 -0.1026 0.0000 0.0000 0.0000 19.8649 5.5016 -9.5543 -3.3153 -11.1887 32.9190 -1.6328 -3.6473 -25.6814 -0.0048 0.4460 -1.2254 0.9725 -1.6141 6.2580 0.8190 -2.0300 -3.0555 0.5535 -1.0258 -6.7080 3.2930 1.2498 -5.8009 -2.4574 1.4885 0.8542 -1.2867 0.7085 1.2975 -0.0000 0.0000 0.0000 -81.9625 12.3709 36.2569 16.9502 -26.7921 -4.0649 -0.0000 0.0000 -22.2260 11.7603 6.6954 1.3905 -7.1250 0.0000 -0.0000 -12.6164 36.5582 2.6718 -0.0000 0.0000 0.0000 80.5439 -12.2727 43.0939 -19.2669 29.7489 -5.1626 0.0000 -0.0000 -3.5063 -19.7496 -7.0238 2.5138 7.1250 -0.0000 -0.0000 5.9862 -37.3779 1.1278
0.00 0.00 0.00 -6.1665 -61.8760 5.0272 0.0000 0.0000 0.0000 -14.7799 7.5775 -3.9191 1.2586 7.1119 20.0474 1.0906 3.4994 -21.2778 0.0001 -0.0597 -0.1639 0.0000 0.0000 0.0000 20.0713 4.7680 -8.9492 -3.2928 -11.1546 32.8032 -1.6846 -1.8464 -25.2522 -0.0013 0.2305 -0.6332 0.8092 -1.6112 5.0455 0.9814 -2.0580 -4.5743 0.8156 -1.0381 -7.6139 3.3590 1.0413 -6.7390 -2.6513 1.1644 0.2504 -1.3681 0.5318 1.2620 -0.0000 -0.0000 0.0000 -72.6211 18.0105 58.4339 26.9012 -38.0848 -9.4381 -0.0000 0.0000 -27.1967 11.2700 8.3021 1.6482 -7.1250 0.0000 -0.0000 -13.3411 38.1217 2.3087 -0.0000 -0.0000 0.0000 68.9745 -18.1843 65.9880 -30.1384 41.0117 -11.5003 0.0000 -0.0000 -8.7927 -19.5463 -6.6508 2.3546 7.1250 -0.0000 -0.0000 6.1125 -36.9724 1.2127
0.00 0.00 0.00 -11.4518 -64.3449 7.7436 0.0000 0.0000 0.0000 -15.9306 18.3828 -4.5693 1.2403 7.0620 19.8992 1.2156 -5.2209 -19.7674 0.0359 1.2234 3.3636 0.0000 0.0000 0.0000 14.8385 4.0682 -18.3347 -7.0306 -15.3576 48.9900 -0.3528 -0.9695 -11.6132 -0.1727 2.6771 -7.3809 -0.3092 -1.6996 5.0289 0.2512 -2.3065 -3.8516 0.6865 -1.1229 -6.8159 3.3545 2.4722 -9.1978 -1.3478 3.0027 10.5741 -0.7586 1.5159 4.7518 -0.0000 0.0000 0.0000 -73.3977 13.8294 55.2075 20.6553 -31.4237 -5.8692 -0.0000 0.0000 -28.4911 2.6721 11.9366 0.5531 -7.1250 0.0000 -0.0000 -21.5236 40.9160 2.2883 -0.0000 0.0000 0.0000 76.7149 -16.1788 39.1315 -24.9589 36.1619 -8.2656 0.0000 -0.0000 -4.2843 -14.4643 -6.6125 1.7014 7.1250 -0.0000 -0.0000 10.3602 -36.6332 2.1604
0.00 0.00 0.00 -9.6725 -66.0634 5.6797 0.0000 0.0000 0.0000 -17.3793 23.9725 6.3700 0.0402 1.2935 3.5566 0.6617 -3.5207 -14.5746 0.0626 1.6148 4.4423 0.0000 0.0000 0.0000 13.9541 4.2124 -37.0994 -10.9285 -17.8999 62.5491 -0.1279 -4.5706 -9.9625 -0.1981 2.8658 -7.9053 -1.8146 -3.2370 6.4546 0.3910 -4.4956 -3.5145 1.9821 -2.1157 -7.1287 3.6691 4.0165 -10.1200 -0.0979 4.8426 11.5165 -0.2639 2.5115 5.2202 0.0000 0.0000 0.0000 -74.0047 3.3688 64.6380 21.0097 -31.8397 -6.0551 -0.0000 0.0000 -25.7324 5.5028 10.8210 1.0362 -7.1250 0.0000 -0.0000 -18.8067 40.1174 2.3601 0.0000 0.0000 0.0000 76.4436 -19.2871 32.6667 -22.0025 32.9798 -6.5872 0.0000 -0.0000 -5.4253 -11.6499 -6.5730 1.3520 7.1250 -0.0000 -0.0000 12.6848 -36.4299 2.7275
0.00 0.00 0.00 -6.4379 -65.2453 4.1974 0.0000 0.0000 0.0000 -17.9931 25.1337 9.0706 0.0000 -0.0000 -0.0000 0.6166 -4.5846 -13.9870 0.0584 1.5594 4.2895 0.0000 0.0000 0.0000 13.9862 8.2313 -36.5488 -6.1027 -14.5271 45.3924 -0.4745 -5.0733 -15.8618 -0.2314 3.0964 -8.5473 -2.8221 -4.0298 5.4579 0.9247 -5.6007 -3.8019 3.1507 -2.6124 -6.6668 3.9963 4.0299 -10.6227 0.1767 4.7636 10.2259 -0.2412 2.4978 4.9032 -0.0000 -0.0000 0.0000 -72.2200 0.1904 68.1856 26.9976 -38.1769 -9.4976 -0.0000 0.0000 -28.5705 8.5363 10.1531 1.5157 -7.1250 0.0000 -0.0000 -16.0703 39.7288 2.1524 -0.0000 -0.0000 0.0000 75.8026 -20.5744 25.6405 -17.8229 27.9298 -4.4660 0.0000 -0.0000 -3.3792 -12.9919 -7.3393 1.6882 7.1250 -0.0000 -0.0000 11.7126 -37.2767 2.2638
0.00 0.00 0.00 6.6108 -59.6684 -5.6818 0.0000 0.0000 0.0000 -13.8142 24.4120 20.5662 0.0000 0.0000 0.0000 -0.0254 -2.9122 0.3181 1.2300 -7.0337 -19.8152 0.0000 0.0000 0.0000 10.1748 11.3143 -24.7896 -3.1486 -10.9319 32.0504 -0.4790 -10.6532 -20.9600 -0.0001 0.0616 -0.1691 -3.3537 -4.2047 4.4137 1.7434 -5.8205 -4.5629 4.2677 -2.6713 -6.7270 5.5303 2.9549 -9.2397 -1.6116 3.3780 6.8185 -1.3136 1.7455 4.0540 0.0000 0.0000 0.0000 -72.8502 5.5647 74.5473 26.8239 -38.0108 -9.3905 -0.0000 0.0000 -23.6939 5.8120 8.7530 0.8874 -7.1250 0.0000 -0.0000 -17.9861 38.1727 3.1461 0.0000 0.0000 0.0000 75.5083 -20.8994 22.1387 -15.0296 24.1874 -3.2381 0.0000 0.0000 0.2594 -12.0976 -7.1757 1.5336 7.1250 -0.0000 -0.0000 12.4268 -37.0570 2.4752
0.00 0.00 0.00 4.9690 -56.4736 -5.6758 0.0000 0.0000 0.0000 -10.1992 20.5018 14.6900 0.8564 5.9015 16.4989 0.1488 7.3223 8.0081 0.5200 -4.6215 -12.8321 0.0000 0.0000 0.0000 14.4832 6.1611 -16.9280 -2.5961 -10.0105 29.0108 -0.8214 -9.0225 -22.6636 -0.0323 -1.1601 3.1894 -1.6888 -3.9038 4.5737 1.9171 -5.2779 -4.5805 3.4975 -2.4729 -7.0148 5.7748 2.0815 -9.3202 -2.1141 2.2215 8.9689 -1.4428 1.1681 4.2976 -0.0000 -0.0000 0.0000 -74.2307 9.3879 67.2040 22.9792 -34.0660 -7.1266 -0.0000 0.0000 -22.7955 7.3986 8.9975 1.1634 -7.1250 0.0000 -0.0000 -16.7332 38.5234 2.7614 -0.0000 -0.0000 0.0000 75.4580 -19.1558 27.0605 -16.9483 26.7895 -4.0640 0.0000 -0.0000 -0.7708 -14.0253 -6.2731 1.5635 7.1250 -0.0000 -0.0000 10.6692 -36.2644 2.3243
